<svg width="246" height="52" viewBox="0 0 246 52" fill="none" xmlns="http://www.w3.org/2000/svg">
<path fill-rule="evenodd" clip-rule="evenodd" d="M86.0924 51.7502C85.1636 51.7502 84.4107 50.9675 84.4107 50.0019V1.74831C84.4107 0.782748 85.1636 0 86.0924 0C87.0211 0 87.7741 0.782748 87.7741 1.74831V50.0019C87.7741 50.9675 87.0211 51.7502 86.0924 51.7502ZM54.6498 49.932C56.7575 51.1442 59.4033 51.7502 62.5873 51.7502C64.6951 51.7502 66.7131 51.3073 68.6413 50.4215C70.6146 49.5357 72.2963 48.3935 73.6864 46.9948C74.7648 45.9438 75.5646 44.8533 76.0858 43.7233L76.3118 49.4086C76.3483 50.3263 77.0746 51.0509 77.9581 51.0509C78.8681 51.0509 79.6059 50.284 79.6059 49.3379V16.4342C79.6059 15.4686 78.853 14.6859 77.9242 14.6859C76.9954 14.6859 76.2425 15.4686 76.2425 16.4342V35.6657C76.2425 37.3441 75.8838 38.9292 75.1663 40.4211C74.4488 41.9131 73.4846 43.2418 72.2738 44.4073C71.063 45.5728 69.6055 46.5053 67.9014 47.2046C66.2422 47.9039 64.4483 48.2536 62.52 48.2536C60.1881 48.2536 58.2149 47.7874 56.6005 46.855C54.9861 45.9225 53.7753 44.5238 52.9681 42.659C52.1609 40.7474 51.7573 38.3931 51.7573 35.5958V16.4342C51.7573 15.4686 51.0044 14.6859 50.0756 14.6859C49.1468 14.6859 48.3939 15.4686 48.3939 16.4342V35.9454C48.3939 39.3955 48.9096 42.2859 49.9411 44.6171C51.0173 46.9482 52.587 48.7198 54.6498 49.932ZM102.803 50.0019C102.803 50.9675 103.556 51.7502 104.485 51.7502C105.414 51.7502 106.167 50.9675 106.167 50.0019V18.6021H115.988C116.842 18.6021 117.535 17.882 117.535 16.9937C117.535 16.1054 116.842 15.3852 115.988 15.3852H106.167V6.57372C106.167 5.60812 105.414 4.82538 104.485 4.82538C103.556 4.82538 102.803 5.60812 102.803 6.57369V15.3852H94.126C93.2715 15.3852 92.5789 16.1054 92.5789 16.9937C92.5789 17.882 93.2715 18.6021 94.126 18.6021H102.803V50.0019ZM125.434 51.7502C124.506 51.7502 123.752 50.9675 123.752 50.0019V17.1335C123.752 16.168 124.506 15.3852 125.434 15.3852C126.363 15.3852 127.116 16.168 127.116 17.1335V50.0019C127.116 50.9675 126.363 51.7502 125.434 51.7502ZM125.434 7.69257C124.448 7.69257 123.685 7.41284 123.147 6.85342C122.609 6.29392 122.34 5.52466 122.34 4.54561C122.34 3.61316 122.609 2.86723 123.147 2.30777C123.685 1.70166 124.448 1.39865 125.434 1.39865C126.42 1.39865 127.183 1.67838 127.721 2.23784C128.259 2.7973 128.528 3.56655 128.528 4.54561C128.528 5.47805 128.259 6.24731 127.721 6.85342C127.183 7.41284 126.42 7.69257 125.434 7.69257ZM155.987 49.9441L138.4 5.50568C137.936 4.33356 138.765 3.04707 139.984 3.04707C140.676 3.04707 141.3 3.47962 141.566 4.14358L154.176 35.6357C154.805 37.2208 155.364 38.6662 155.858 39.9715C156.352 41.2303 156.823 42.4425 157.271 43.6081C157.764 44.7736 158.212 45.9858 158.616 47.2446C158.778 47.6818 158.943 48.1401 159.11 48.6197C159.536 47.4213 159.933 46.3336 160.298 45.3564C160.926 43.6314 161.531 41.9996 162.114 40.4611C162.696 38.9226 163.392 37.1742 164.199 35.2161L177.208 4.10982C177.478 3.46449 178.09 3.04707 178.767 3.04707C179.989 3.04707 180.813 4.34793 180.328 5.51468L161.869 49.9959C161.364 51.2123 160.212 52 158.938 52C157.644 52 156.478 51.188 155.987 49.9441ZM185.158 51.7502C184.229 51.7502 183.476 50.9675 183.476 50.0019V17.1335C183.476 16.168 184.229 15.3852 185.158 15.3852C186.086 15.3852 186.839 16.168 186.839 17.1335V50.0019C186.839 50.9675 186.086 51.7502 185.158 51.7502ZM185.158 7.69257C184.172 7.69257 183.409 7.41284 182.871 6.85342C182.333 6.29392 182.063 5.52466 182.063 4.54561C182.063 3.61316 182.333 2.86723 182.871 2.30777C183.409 1.70166 184.172 1.39865 185.158 1.39865C186.144 1.39865 186.907 1.67838 187.445 2.23784C187.983 2.7973 188.252 3.56655 188.252 4.54561C188.252 5.47805 187.983 6.24731 187.445 6.85342C186.907 7.41284 186.144 7.69257 185.158 7.69257ZM193.057 50.0019C193.057 50.9675 193.81 51.7502 194.738 51.7502C195.667 51.7502 196.42 50.9675 196.42 50.0019V1.74831C196.42 0.782748 195.667 0 194.738 0C193.81 0 193.057 0.782748 193.057 1.74831V50.0019ZM202.907 51.7502C201.978 51.7502 201.225 50.9675 201.225 50.0019V1.74831C201.225 0.782748 201.978 0 202.907 0C203.835 0 204.588 0.782748 204.588 1.74831V50.0019C204.588 50.9675 203.835 51.7502 202.907 51.7502ZM218.811 49.3725C221.815 50.9576 225.245 51.7502 229.102 51.7502C231.389 51.7502 233.452 51.5171 235.291 51.0509C237.174 50.5847 238.856 49.932 240.336 49.0928C241.403 48.5057 242.382 47.8957 243.273 47.2629C243.913 46.8083 244.077 45.914 243.683 45.2198C243.222 44.409 242.193 44.1902 241.434 44.7024C239.66 45.8983 237.971 46.7558 236.367 47.2745C234.349 47.8806 232.152 48.1837 229.775 48.1837C226.233 48.1837 223.206 47.5543 220.694 46.2955C218.228 44.9901 216.322 43.1719 214.976 40.8407C213.761 38.7353 213.095 36.2877 212.977 33.4978H243.833C244.995 33.4978 245.949 32.5384 245.986 31.3299C246.077 28.719 245.717 26.3413 244.91 24.1967C244.103 22.0522 242.915 20.2106 241.345 18.6721C239.821 17.0869 237.959 15.8981 235.762 15.1055C233.565 14.2663 231.12 13.8467 228.43 13.8467C225.739 13.8467 223.227 14.3129 220.896 15.2453C218.564 16.1311 216.546 17.4366 214.842 19.1616C213.137 20.84 211.792 22.8214 210.806 25.1059C209.864 27.3903 209.393 29.9546 209.393 32.7985C209.393 36.5749 210.223 39.885 211.882 42.7289C213.541 45.5728 215.851 47.7874 218.811 49.3725ZM213.071 30.2809C213.319 27.8492 213.977 25.7745 215.044 24.0569C216.433 21.7725 218.295 20.094 220.627 19.0217C222.958 17.9028 225.537 17.3433 228.362 17.3433C231.457 17.3433 234.057 17.9727 236.165 19.2315C238.274 20.4903 239.865 22.0754 240.941 23.9869C242.062 25.8518 242.623 27.7167 242.623 29.5816L242.651 30.2809H213.071Z" fill="#F1F1F1"/>
<path fill-rule="evenodd" clip-rule="evenodd" d="M25.8306 50.778C22.1085 50.778 18.6555 50.1486 15.4715 48.8899C12.3324 47.6311 9.5968 45.8828 7.26489 43.6449C4.93295 41.3605 3.13918 38.703 1.8835 35.6726C0.627867 32.5955 3.05176e-05 29.2154 3.05176e-05 25.5323C3.05176e-05 21.9424 0.605432 18.6556 1.81624 15.6718C3.07191 12.6413 4.82085 10.0306 7.06309 7.83933C9.30533 5.6015 11.9512 3.87647 15.0006 2.66429C18.0949 1.40551 21.4358 0.776119 25.0234 0.776119C27.3553 0.776119 29.6873 1.14911 32.0192 1.89504C34.396 2.64101 36.5934 3.64335 38.6114 4.90213C40.1644 5.835 41.5049 6.8783 42.633 8.03202C43.2141 8.62639 43.2249 9.57716 42.7193 10.242C42.0116 11.1723 40.637 11.1306 39.8286 10.2937C39.0262 9.46298 38.1047 8.7148 37.0642 8.04913C35.3153 6.88356 33.387 5.97444 31.2793 5.32177C29.2164 4.62244 27.1087 4.27278 24.9562 4.27278C21.9067 4.27278 19.0591 4.78559 16.4132 5.81129C13.7673 6.83695 11.5027 8.30554 9.61923 10.217C7.73576 12.1286 6.25589 14.413 5.17962 17.0705C4.10331 19.6813 3.56518 22.5019 3.56518 25.5323C3.56518 28.6559 4.10331 31.5699 5.17962 34.2739C6.30072 36.9313 7.87029 39.2391 9.8883 41.1973C11.9063 43.1088 14.2382 44.6239 16.8841 45.7429C18.0933 46.2329 19.3633 46.611 20.6942 46.8771C20.967 46.4292 21.2345 45.9493 21.486 45.4568C22.1097 44.2351 22.6127 42.9779 22.8493 41.9889C18.7701 42.8001 15.9272 41.8462 14.0972 39.9388C12.2045 37.9661 11.4695 35.0482 11.4695 32.2744V31.681L12.0235 31.9189C12.8367 32.268 13.7912 32.5427 14.825 32.8401C14.9937 32.8887 15.1645 32.9378 15.3371 32.988C16.5535 33.3415 17.8446 33.7422 19.036 34.3351C20.2311 34.9299 21.3396 35.7245 22.1852 36.874C22.6377 37.4891 23.0099 38.199 23.2808 39.0234C23.4589 37.5988 23.6159 36.1523 23.7342 34.7538C23.8226 33.707 23.6368 31.8474 23.1663 30.0927C22.932 29.2187 22.6312 28.387 22.2688 27.7056C21.9024 27.0169 21.4937 26.5209 21.0639 26.2671C19.2264 25.182 17.425 24.1106 16.0902 22.7716C14.7389 21.416 13.8536 19.7751 13.8536 17.563C13.8536 14.1815 14.3778 11.6314 14.6506 10.7526L14.827 10.1847L15.2864 10.571C15.5212 10.7686 15.7921 10.9861 16.0882 11.224C17.4946 12.3536 19.4723 13.942 20.8842 16.0271C22.5759 18.5252 23.4739 21.7541 21.7581 25.7978C22.2392 26.1726 22.6392 26.7246 22.97 27.3465C23.3683 28.0953 23.6875 28.9859 23.9313 29.8952C24.2243 30.9881 24.4146 32.1316 24.4979 33.1215C25.2655 32.0031 26.3782 31.2674 27.6158 30.8421C29.3426 30.2486 31.3233 30.2523 33.0114 30.6408C35.1055 31.1228 36.6213 31.1535 37.6493 31.0529C38.5847 30.9613 39.126 30.7607 39.3575 30.6749C39.379 30.667 39.3982 30.6599 39.4144 30.6541L40.6505 30.2117L39.8678 31.2495C38.2196 33.4347 35.4437 36.277 32.4735 37.6385C30.9831 38.3216 29.4074 38.6483 27.8885 38.2908C26.6274 37.9939 25.452 37.2364 24.4235 35.9089C24.2421 37.7887 24.0012 39.7181 23.7416 41.537C23.575 42.7048 22.9555 44.3114 22.1932 45.8044C21.981 46.22 21.7553 46.6316 21.5221 47.0269C22.8546 47.2432 24.2459 47.3513 25.6961 47.3513C27.8486 47.3513 29.9115 47.0483 31.8847 46.4422C33.9027 45.7895 35.7189 44.9736 37.3333 43.9945C38.185 43.4535 38.9493 42.8734 39.6263 42.2545C40.4595 41.4926 41.8304 41.6125 42.3693 42.621C42.6957 43.2317 42.6121 43.9973 42.1179 44.4706C41.0891 45.456 39.853 46.3697 38.4096 47.2115C36.5709 48.2838 34.5529 49.1462 32.3555 49.799C30.203 50.4517 28.028 50.778 25.8306 50.778ZM21.5439 37.3283C22.2478 38.2851 22.7529 39.5253 22.9258 41.1801C18.9195 42.0362 16.3055 41.1081 14.6732 39.4068C13.0949 37.7619 12.3688 35.3276 12.2718 32.8548C12.9974 33.1236 13.7976 33.3536 14.6095 33.587L14.6105 33.5873C14.7775 33.6353 14.945 33.6835 15.1125 33.7322C16.3265 34.085 17.5566 34.4691 18.6782 35.0273C19.796 35.5836 20.7922 36.3064 21.5439 37.3283ZM28.0731 37.5361C26.8339 37.2444 25.6244 36.4105 24.5607 34.7359C25.1358 33.0893 26.379 32.0895 27.8773 31.5745C29.4363 31.0387 31.2603 31.035 32.8308 31.3964C35.0015 31.896 36.6051 31.9351 37.7278 31.8252C38.0143 31.7971 38.2687 31.7594 38.4921 31.7176C36.8631 33.6642 34.5441 35.8327 32.1387 36.9353C30.7449 37.5742 29.3586 37.8387 28.0731 37.5361ZM20.2254 16.4566C21.7762 18.7467 22.6082 21.6629 21.0815 25.3713C19.3761 24.3602 17.8184 23.3954 16.6557 22.2289C15.4213 20.9907 14.6446 19.5366 14.6446 17.563C14.6446 14.8366 14.9932 12.6802 15.2545 11.5574C15.3713 11.652 15.4923 11.7494 15.6169 11.8496C17.0252 12.9824 18.8867 14.4798 20.2254 16.4566Z" fill="#F1F1F1"/>
</svg>
